<svg width="170" height="45" viewBox="0 0 170 45" fill="none" xmlns="http://www.w3.org/2000/svg">
<path d="M128.97 1H128.989C128.457 24.8387 108.966 44 85 44C61.0337 44 41.5427 24.8387 41.0111 1H41.03H41.0599H41.0903H41.1211H41.1523H41.1839H41.216H41.2484H41.2812H41.3145H41.3482H41.3822H41.4167H41.4516H41.4869H41.5226H41.5587H41.5952H41.6321H41.6694H41.7071H41.7452H41.7837H41.8226H41.8619H41.9016H41.9417H41.9822H42.0231H42.0644H42.1061H42.1481H42.1906H42.2335H42.2767H42.3204H42.3644H42.4088H42.4536H42.4988H42.5444H42.5904H42.6367H42.6835H42.7306H42.7781H42.826H42.8743H42.9229L42.972 1H43.0214H43.0712H43.1214H43.1719H43.2228H43.2741H43.3258H43.3779H43.4303H43.4831H43.5363H43.5899H43.6438H43.6981H43.7528H43.8078H43.8632H43.919H43.9752H44.0317H44.0885H44.1458H44.2034H44.2614H44.3197H44.3784H44.4375H44.4969H44.5567H44.6169H44.6774H44.7382H44.7995H44.861H44.923H44.9853H45.0479H45.1109H45.1743H45.238H45.3021H45.3665H45.4313H45.4964H45.5619H45.6277H45.6938H45.7604H45.8272H45.8944H45.962H46.0299H46.0981H46.1667H46.2357H46.3049H46.3745H46.4445H46.5148H46.5854H46.6564H46.7277H46.7994H46.8714H46.9437H47.0164H47.0894H47.1627H47.2364H47.3103H47.3847H47.4593H47.5343H47.6096H47.6853H47.7613H47.8376H47.9142H47.9912H48.0685H48.1461H48.224H48.3023H48.3808H48.4597H48.539H48.6185H48.6984H48.7786H48.8591H48.9399H49.021H49.1025H49.1843H49.2664H49.3488H49.4315H49.5145H49.5979H49.6815H49.7655H49.8498H49.9344H50.0193H50.1045H50.19H50.2758H50.3619H50.4484H50.5351H50.6222H50.7095H50.7972H50.8851H50.9734H51.0619H51.1508H51.2399H51.3294H51.4191H51.5092H51.5995H51.6902H51.7811H51.8724H51.9639H52.0557H52.1478H52.2402H52.3329H52.4259H52.5192H52.6128H52.7066H52.8008H52.8952H52.9899H53.0849H53.1802H53.2758H53.3716H53.4678H53.5642H53.6609H53.7579H53.8551H53.9527H54.0505H54.1486H54.247H54.3456H54.4446H54.5438H54.6433H54.743H54.843H54.9433H55.0439H55.1448H55.2459H55.3473H55.4489H55.5508H55.653H55.7555H55.8582H55.9612H56.0645H56.168H56.2718H56.3758H56.4801H56.5847H56.6895H56.7946H56.9H57.0056H57.1115H57.2176H57.324H57.4306H57.5375H57.6447H57.7521H57.8597H57.9676H58.0758H58.1842H58.2929H58.4018H58.5109H58.6203H58.73H58.8399H58.9501H59.0605H59.1711H59.282H59.3931H59.5045H59.6161H59.728H59.8401H59.9524H60.065H60.1778H60.2909H60.4042H60.5177H60.6315H60.7455H60.8597H60.9742H61.0889H61.2038H61.319H61.4344H61.55H61.6659H61.782H61.8983H62.0148H62.1316H62.2486H62.3658H62.4833H62.6009H62.7188H62.837H62.9553H63.0739H63.1926H63.3117H63.4309H63.5503H63.67H63.7899H63.91H64.0303H64.1508H64.2716H64.3925H64.5137H64.6351H64.7567H64.8785H65.0005H65.1227H65.2451H65.3678H65.4906H65.6137H65.737H65.8604H65.9841H66.108H66.2321H66.3564H66.4809H66.6055H66.7304H66.8555H66.9808H67.1063H67.232H67.3579H67.484H67.6102H67.7367H67.8634H67.9903H68.1173H68.2446H68.372H68.4996H68.6275H68.7555H68.8837H69.0121H69.1406H69.2694H69.3984H69.5275H69.6568H69.7863H69.916H70.0459H70.1759H70.3062H70.4366H70.5672H70.698H70.8289H70.9601H71.0914H71.2229H71.3545H71.4864H71.6184H71.7506H71.8829H72.0155H72.1482H72.281H72.4141H72.5473H72.6807H72.8143H72.948H73.0819H73.2159H73.3501H73.4845H73.6191H73.7538H73.8887H74.0237H74.1589H74.2943H74.4298H74.5655H74.7013H74.8373H74.9735H75.1098H75.2463H75.3829H75.5197H75.6566H75.7937H75.9309H76.0683H76.2059H76.3436H76.4814H76.6194H76.7575H76.8958H77.0343H77.1728H77.3116H77.4504H77.5895H77.7286H77.8679H78.0074H78.1469H78.2867H78.4265H78.5665H78.7067H78.847H78.9874H79.128H79.2686H79.4095H79.5504H79.6915H79.8328H79.9741H80.1156H80.2573H80.399H80.5409H80.6829H80.8251H80.9673H81.1097H81.2523H81.3949H81.5377H81.6806H81.8236H81.9668H82.11H82.2534H82.3969H82.5406H82.6843H82.8282H82.9722H83.1163H83.2605H83.4048H83.5493H83.6938H83.8385H83.9833H84.1282H84.2733H84.4184H84.5636H84.709H84.8544H85H85.1456H85.291H85.4364H85.5816H85.7267H85.8718H86.0167H86.1615H86.3062H86.4507H86.5952H86.7395H86.8837H87.0278H87.1718H87.3157H87.4594H87.6031H87.7466H87.89H88.0332H88.1764H88.3194H88.4623H88.6051H88.7477H88.8903H89.0327H89.1749H89.3171H89.4591H89.601H89.7427H89.8844H90.0259H90.1672H90.3085H90.4496H90.5905H90.7314H90.872H91.0126H91.153H91.2933H91.4335H91.5735H91.7133H91.8531H91.9926H92.1321H92.2714H92.4105H92.5496H92.6884H92.8272H92.9657H93.1042H93.2425H93.3806H93.5186H93.6564H93.7941H93.9317H94.0691H94.2063H94.3434H94.4803H94.6171H94.7537H94.8902H95.0265H95.1627H95.2987H95.4345H95.5702H95.7057H95.8411H95.9763H96.1113H96.2462H96.3809H96.5155H96.6499H96.7841H96.9181H97.052H97.1857H97.3193H97.4527H97.5859H97.719H97.8518H97.9845H98.1171H98.2494H98.3816H98.5136H98.6455H98.7771H98.9086H99.0399H99.1711H99.302H99.4328H99.5634H99.6938H99.8241H99.9541H100.084H100.214H100.343H100.473H100.602H100.731H100.859H100.988L101.116 1H101.245H101.373H101.5H101.628H101.755H101.883H102.01H102.137H102.263H102.39H102.516H102.642H102.768H102.894H103.019H103.144H103.27H103.394H103.519H103.644H103.768H103.892H104.016H104.14H104.263H104.386H104.509H104.632H104.755H104.877H105H105.122H105.243H105.365H105.486H105.607H105.728H105.849H105.97H106.09H106.21H106.33H106.45H106.569H106.688H106.807H106.926H107.045H107.163H107.281H107.399H107.517H107.634H107.751H107.868H107.985H108.102H108.218H108.334H108.45H108.566H108.681H108.796H108.911H109.026H109.14H109.255H109.369H109.482H109.596H109.709H109.822H109.935H110.048H110.16H110.272H110.384H110.496H110.607H110.718H110.829H110.94H111.05H111.16H111.27H111.38H111.489H111.598H111.707H111.816H111.924H112.032H112.14H112.248H112.355H112.462H112.569H112.676H112.782H112.889H112.994H113.1H113.205H113.31H113.415H113.52H113.624H113.728H113.832H113.936H114.039H114.142H114.245H114.347H114.449H114.551H114.653H114.754H114.855H114.956H115.057H115.157H115.257H115.357H115.456H115.555H115.654H115.753H115.851H115.949H116.047H116.145H116.242H116.339H116.436H116.532H116.628H116.724H116.82H116.915H117.01H117.105H117.199H117.293H117.387H117.481H117.574H117.667H117.76H117.852H117.944H118.036H118.128H118.219H118.31H118.4H118.491H118.581H118.671H118.76H118.849H118.938H119.027H119.115H119.203H119.29H119.378H119.465H119.552H119.638H119.724H119.81H119.896H119.981H120.066H120.15H120.234H120.318H120.402H120.485H120.569H120.651H120.734H120.816H120.897H120.979H121.06H121.141H121.221H121.302H121.381H121.461H121.54H121.619H121.698H121.776H121.854H121.932H122.009H122.086H122.162H122.239H122.315H122.39H122.466H122.541H122.615H122.69H122.764H122.837H122.911H122.984H123.056H123.129H123.201H123.272H123.344H123.415H123.485H123.555H123.625H123.695H123.764H123.833H123.902H123.97H124.038H124.106H124.173H124.24H124.306H124.372H124.438H124.504H124.569H124.634H124.698H124.762H124.826H124.889H124.952H125.015H125.077H125.139H125.201H125.262H125.323H125.383H125.443H125.503H125.563H125.622H125.68H125.739H125.797H125.854H125.911H125.968H126.025H126.081H126.137H126.192H126.247H126.302H126.356H126.41H126.464H126.517H126.57H126.622H126.674H126.726H126.777H126.828H126.879H126.929H126.979H127.028H127.077H127.126H127.174H127.222H127.269H127.317H127.363H127.41H127.456H127.501H127.546H127.591H127.636H127.68H127.723H127.767H127.809H127.852H127.894H127.936H127.977H128.018H128.058H128.098H128.138H128.177H128.216H128.255H128.293H128.331H128.368H128.405H128.441H128.477H128.513H128.548H128.583H128.618H128.652H128.685H128.719H128.752H128.784H128.816H128.848H128.879H128.91H128.94H128.97Z" stroke="white" stroke-width="2"/>
<line x1="85.7107" y1="12.9578" x2="71.7107" y2="27.1" stroke="white" stroke-width="2"/>
<line x1="99.0473" y1="27.2157" x2="84.5387" y2="12.7071" stroke="white" stroke-width="2"/>
<line y1="1" x2="170" y2="1" stroke="white" stroke-width="2"/>
</svg>
